<svg xmlns="http://www.w3.org/2000/svg" viewBox="0 0 149.51 149.51"><defs><style>.cls-1{fill:#823f9e;}.cls-2{fill:#fff;}</style></defs><title>Asset 3</title><g id="Layer_2" data-name="Layer 2"><g id="Layer_2-2" data-name="Layer 2"><circle class="cls-1" cx="74.76" cy="74.76" r="74.76"/><path class="cls-2" d="M66.33,98.87V15.82L40.22,56.52s-9.88,13.18-8,30.35,21.17,25.41,30.35,26.35v20h3.76Z"/><rect class="cls-2" x="70.18" y="14.49" width="20.39" height="118.74"/><polygon class="cls-1" points="69.61 67.65 67.35 70.05 53.79 57.81 56.05 55.42 69.61 67.65"/><polygon class="cls-1" points="69.61 97.41 67.35 99.81 48.1 82.44 50.36 80.05 69.61 97.41"/><rect class="cls-1" x="71.49" y="108.44" width="2.88" height="9.39" transform="translate(-40.2 186.07) rotate(-90)"/><rect class="cls-1" x="71.49" y="95.26" width="2.88" height="9.39" transform="translate(-27.03 172.89) rotate(-90)"/><rect class="cls-1" x="71.49" y="82.09" width="2.88" height="9.39" transform="translate(-13.85 159.72) rotate(-90)"/><rect class="cls-1" x="71.49" y="68.91" width="2.88" height="9.39" transform="translate(-0.68 146.54) rotate(-90)"/><rect class="cls-1" x="71.49" y="55.74" width="2.88" height="9.39" transform="translate(12.5 133.36) rotate(-90)"/><rect class="cls-1" x="71.49" y="43.5" width="2.88" height="9.39" transform="translate(24.73 121.13) rotate(-90)"/><rect class="cls-1" x="71.49" y="30.33" width="2.88" height="9.39" transform="translate(37.91 107.95) rotate(-90)"/></g></g></svg>