<svg xmlns="http://www.w3.org/2000/svg" viewBox="0 0 149.51 149.51"><defs><style>.cls-1{fill:#2e6ecc;}.cls-2{fill:#fff;}</style></defs><title>Asset 5</title><g id="Layer_2" data-name="Layer 2"><g id="Layer_2-2" data-name="Layer 2"><circle class="cls-1" cx="74.76" cy="74.76" r="74.76"/><path class="cls-2" d="M58.85,24.26s-5.23,3.32-4.68,14.56c0,0-7.29,3.48-5,13.49S62.83,63.93,67,58.42s3.79-19.9-7.8-20.29C59.23,38.13,55.11,32.38,58.85,24.26Z"/><path class="cls-2" d="M73.56,109.42c9.62.62,7.37,5.27,19,5.25,14,0,15.75-12.63,15.75-12.63s2.37-13.25-3.88-16.5a32.67,32.67,0,0,1-12.5-10.8c-2.62-3.82-9.62-6.45-14-5.2a12.73,12.73,0,0,1-4.37,1,12.84,12.84,0,0,1-4.38-1c-4.37-1.25-11.37,1.38-14,5.2a32.6,32.6,0,0,1-12.5,10.8c-6.25,3.25-3.87,16.5-3.87,16.5s1.74,12.6,15.75,12.63C66.18,114.69,63.93,110,73.56,109.42Z"/><path class="cls-2" d="M27.56,42.35s-3.84,4.87.42,15.29c0,0-5.72,5.71-.24,14.38s16.75,6.43,18.88-.17-3-20-14.1-16.54C32.52,55.31,26.72,51.26,27.56,42.35Z"/><path class="cls-2" d="M88.58,24.26s5.23,3.32,4.67,14.56c0,0,7.29,3.48,5,13.49S84.59,63.93,80.39,58.42s-3.78-19.9,7.81-20.29C88.2,38.13,92.32,32.38,88.58,24.26Z"/><path class="cls-2" d="M119.87,42.35s3.83,4.87-.43,15.29c0,0,5.72,5.71.25,14.38s-16.76,6.43-18.89-.17,3-20,14.11-16.54C114.91,55.31,120.7,51.26,119.87,42.35Z"/></g></g></svg>