<svg xmlns="http://www.w3.org/2000/svg" viewBox="0 0 149.51 149.51"><defs><style>.cls-1{fill:#84aa30;}.cls-2{fill:#fff;}</style></defs><title>Asset 4</title><g id="Layer_2" data-name="Layer 2"><g id="Layer_2-2" data-name="Layer 2"><circle class="cls-1" cx="74.76" cy="74.76" r="74.76"/><path class="cls-2" d="M74.21,62h-.35a70.84,70.84,0,0,1-3.67-6.2c-1.14-2.37-1.39-2.29-.65-8.24,0,0-.25-1.64-1.31-.66s-1.55,5.23-1,7.19S72,62.78,72,62.78A4.34,4.34,0,0,0,71.76,66S58.66,44.15,45.57,37.6s-18.72-9.12-23.4-5.84.71,6.08-1.16,11a9.25,9.25,0,0,0,1.4,9.58c1.17,1.65-3,1.77-.94,6.86,0,0,.73.49-.09,1.55s-1.14,5,.74,6.12.57,2.94,1.87,5a6,6,0,0,0,3.19,2.53A4.41,4.41,0,0,0,28.48,78c1.72,2,2.37,1.22,3.43,2.86s.16,4.65,5.88,5.38a101.9,101.9,0,0,0,14.28.33s-6.69.9-11.92,1.22S24.73,89.14,23.34,94s2.53,4,2.37,8.3S24.24,109,27,111.4s2.86,1.47,3.51,4.49,2.53,3.92,4.41,5,2,1.47,3.26,3.43a7,7,0,0,0,6,2.61c1.55-.25,2.86,1.06,5.63,1.63s6.53.33,9.06-2.45,1.56-.49,5.8-1.79,7.59-17.67,9.22-27.39h.35c1.63,9.72,5,26.08,9.22,27.39s3.26-1,5.79,1.79,6.29,3,9.06,2.45,4.08-1.88,5.63-1.63a7,7,0,0,0,6-2.61c1.31-2,1.39-2.37,3.27-3.43s3.75-2,4.4-5,.74-2,3.51-4.49,1.47-4.81,1.31-9.14,3.75-3.49,2.37-8.3-11.59-5.8-16.82-6.13S96,86.61,96,86.61a101.9,101.9,0,0,0,14.28-.33c5.71-.73,4.82-3.75,5.88-5.38s1.71-.9,3.43-2.86a4.41,4.41,0,0,0,1.3-3.67,6,6,0,0,0,3.18-2.53c1.31-2,0-3.84,1.88-5s1.55-5.06.74-6.12-.1-1.55-.1-1.55c2.11-5.09-2.1-5.21-.93-6.86a9.27,9.27,0,0,0,1.4-9.58c-1.87-4.91,3.51-7.72-1.17-11s-10.29-.71-23.39,5.84S76.3,66,76.3,66a4.36,4.36,0,0,0-.22-3.26s4.16-6.7,4.74-8.65.08-6.21-1-7.19-1.31.66-1.31.66c.74,5.95.49,5.87-.65,8.24A70.84,70.84,0,0,1,74.21,62Z"/></g></g></svg>