<svg xmlns="http://www.w3.org/2000/svg" viewBox="0 0 149.51 149.51"><defs><style>.cls-1{fill:#84aa30;}.cls-2{fill:#fff;}</style></defs><title>Asset 7</title><g id="Layer_2" data-name="Layer 2"><g id="Layer_2-2" data-name="Layer 2"><circle class="cls-1" cx="74.76" cy="74.76" r="74.76"/><polygon class="cls-2" points="136.35 103.15 12.61 103.15 29.93 74.05 32.22 76.23 51.04 48.56 54.74 50.29 74.76 24.26 89.93 41.29 93.78 40.03 111.79 65.7 115.06 63.58 136.35 103.15"/><path class="cls-1" d="M69.69,104.18s2.89-3.84,2.74-6.89-1.37-13.71-1.37-13.71l-4.34-1.74a2,2,0,0,1-1.45,2s-1.53,2.74-2.44,2.28c0,0-.91,2.29-3.81,1.07,0,0-2.89,1.37-3.65-.61,0,0-3.66-1.53-1.83-3.2,0,0-2.4-1.68-.51-3.66,0,0-.23-3.37,3-3,0,0,2.2-2.86,4.49-.07,0,0,1.49-2.06,3.81-.11a3,3,0,0,1,.81,2.62s1-1.44,1.65,1.09a7.53,7.53,0,0,0,2.66,1c1.13.08.48-.67-.8-3.71A23.59,23.59,0,0,1,67,71.74l-3.37-2.41s.18,1.2-1.28,1.44c0,0-.33,1.93-1.86,1.45s-.64-2-.64-2-2.25.56-2.41-1.45c0,0-3.3,1.61-3.78-1.52,0,0-2.33.32-2-1.37,0,0-3.05-1-1.29-3.29,0,0-.64-2.5,1.93-2.33a1.57,1.57,0,0,1,2.58-.49,2.56,2.56,0,0,1,3.53-.5,2.08,2.08,0,0,1,3.06-.51c1.84,1.33.64,2.7.64,2.7s2.17-1,2.81.88a1.17,1.17,0,0,1,1.61,1.05A1.41,1.41,0,0,1,65.17,65a1.45,1.45,0,0,1,1.37,1.6c-.08,1.53-2,1.53-2,1.53a15.58,15.58,0,0,0,2.89,1.93s.32-3,1.13-4,.88-6.18-.08-7c0,0-1.53,1.37-2.25.32,0,0-2.62,1.33-2.44-1.36,0,0-5,.18-3.5-2.27,0,0-5.73-1.07-4-3.24,0,0,2.09-1.53,2.95-1.22,0,0,.15-1.63,1.54-1.72,0,0,.35-3.54,3.73-2.66,0,0,1.29-2.65,3.21-1a2.54,2.54,0,0,1,3.54-.56s2.33-1.5,3,1.2c0,0,2.42-.8,2.33,1.61,0,0,.57-1.85,3.3-1A2.47,2.47,0,0,1,83.26,46s1.44-2.09,3-.24c0,0,2.65-.88,2.65,1.53,0,0,2.41-1.05,2.41,1.28,0,0,2.49-.4,2.41,1.61,0,0,2.49-1,2.66.56,0,0,2.49-1,2.65,1.45s-2.82,2.25-2.82,2.25.17,1.77-1,2.09A1.92,1.92,0,0,1,93.3,56a2.23,2.23,0,0,1-2.09,2.09c-2.09.32-2.33-.73-2.33-.73a2.12,2.12,0,0,1-1.69,1.93c-1.6.32-1.68-.56-1.68-.56s-.49,2-2.09,2a2.75,2.75,0,0,1-2.25-.89s-.25,1.77-1.37,1.77a1.72,1.72,0,0,1-1.53-1.12,2.34,2.34,0,0,1-2.09,1.44c-1.52,0-1.72-1-1.72-1a2.45,2.45,0,0,1-3.66.32s.4,3.62-.48,5.47a8.29,8.29,0,0,0-1,5.7,31.93,31.93,0,0,0,3.06,9.4c1.44,3.06,2,9.41,2.81,12.94s1.28,9,5.06,9.38C80.2,104.18,68.17,105.19,69.69,104.18Z"/><path class="cls-1" d="M74.66,92.27s.58-3.93,3.13-5.59,4.44-2.77,4.44-2.77.45,1.88,3.22,1.77c0,0,0,2,2.66,1.11,0,0,2.33,2.44,3.67-.89a2.45,2.45,0,0,0,3.1-2s2.67.22,3.22-2.11a2.33,2.33,0,0,0,1.44-3.33s2.78-1.11,1.67-2.44-4-.67-4-.67-.22-1.11-2.55-1.22a2.5,2.5,0,0,0-3.22-1.22c-2.33.78-1.77,2.44-1.77,2.44a2.75,2.75,0,0,0-3.11.22c-1.55,1.22-.55,2-.55,2s-3.33.33-2.67,3a1.92,1.92,0,0,0-2,1.93A20.06,20.06,0,0,1,78,84.79a9.2,9.2,0,0,0-3.94,4C73.47,90.23,73.51,92.87,74.66,92.27Z"/><path class="cls-1" d="M70.88,79.34s-.07-4,2.36-5.71c.2-.14,0-.14,0,0,.23.71,1.22.4,1.22.4,0,.64,1.94,1.07,2.3.14a1.57,1.57,0,0,0,1.12,2.27s.43,1.94,2.15.43c0,0,2.59,1,3.13-1.42,0,0,2.7.64,2.91-2,0,0,2.16.5,2.37-1.33,0,0,2.81.21,2.81-1.84s-2.48-1.72-2.48-1.72a1.46,1.46,0,0,0-1.84-1.19S86.5,65,84,66.84a2,2,0,0,0-3.16.54S79,66,77.77,68.78c0,0-1.61-1.42-2.36.86a2.23,2.23,0,0,0-2.56,2.83s-1.55.17-2.87,3.38S71.37,80.88,70.88,79.34Z"/></g></g></svg>