<!-- Generated by IcoMoon.io -->
<svg version="1.1" xmlns="http://www.w3.org/2000/svg" width="1024" height="1024" viewBox="0 0 1024 1024">
<title></title>
<g id="icomoon-ignore">
</g>
<path d="M528.913 762.024l-197.133 91.358c-21.635 9.614-45.679 0-55.292-19.234l-199.541-432.738c-9.614-21.635 0-45.679 19.234-55.292l206.753-96.161v52.891l-180.308 84.145 197.133 420.718 96.161-45.679h112.993z"></path>
<path d="M548.145 240.337l-185.118-2.402-4.81 463.989h72.125l127.417 50.487-204.347-2.402c-24.044 0-40.869-19.234-40.869-43.272l4.81-476.011c0-24.044 19.234-40.869 43.272-40.869l211.562 2.402z"></path>
<path d="M406.299 634.607l177.904-442.353c9.614-21.635 33.657-31.256 55.292-24.044l288.491 115.395c21.635 9.614 31.256 33.657 24.044 55.292l-177.904 442.353c-9.614 21.635-33.657 31.256-55.292 24.044l-288.491-115.395c-24.044-9.614-33.657-33.657-24.044-55.292zM903.952 326.882l-278.878-110.588-173.096 430.332 278.878 110.588 173.096-430.332z"></path>
</svg>
